<?xml version="1.0" encoding="UTF-8" standalone="no"?>
<svg
   width="117"
   height="32"
   viewBox="0 0 117 32"
   fill="none"
   version="1.1"
   id="svg1"
   sodipodi:docname="logo_light.svg"
   inkscape:version="1.3 (0e150ed6c4, 2023-07-21)"
   xml:space="preserve"
   xmlns:inkscape="http://www.inkscape.org/namespaces/inkscape"
   xmlns:sodipodi="http://sodipodi.sourceforge.net/DTD/sodipodi-0.dtd"
   xmlns="http://www.w3.org/2000/svg"
   xmlns:svg="http://www.w3.org/2000/svg"><defs
     id="defs1" /><sodipodi:namedview
     id="namedview1"
     pagecolor="#505050"
     bordercolor="#ffffff"
     borderopacity="1"
     inkscape:showpageshadow="0"
     inkscape:pageopacity="0"
     inkscape:pagecheckerboard="1"
     inkscape:deskcolor="#505050"
     inkscape:zoom="2.3568376"
     inkscape:cx="58.340888"
     inkscape:cy="15.911151"
     inkscape:window-width="1920"
     inkscape:window-height="1009"
     inkscape:window-x="-8"
     inkscape:window-y="-8"
     inkscape:window-maximized="1"
     inkscape:current-layer="svg1" /><path
     style="font-weight:bold;font-size:41.1972px;font-family:Poppins;-inkscape-font-specification:'Poppins Bold';fill:#fffcfc;stroke-width:6.22823"
     d="m 9.5989478,25.083988 h 9.2281732 v 5.43803 H 2.5542264 V 1.6015835 h 7.0447214 z m 26.2837842,5.726411 q -4.078522,0 -7.49789,-1.895071 -3.378171,-1.895072 -5.396833,-5.273242 -1.977466,-3.419368 -1.977466,-7.662679 0,-4.243312 1.977466,-7.6214826 2.018662,-3.3781704 5.396833,-5.2732417 3.419368,-1.8950712 7.49789,-1.8950712 4.078523,0 7.456694,1.8950712 3.419367,1.8950713 5.355636,5.2732417 1.977465,3.3781706 1.977465,7.6214826 0,4.243311 -1.977465,7.662679 -1.977466,3.37817 -5.355636,5.273242 -3.378171,1.895071 -7.456694,1.895071 z m 0,-6.426763 q 3.460565,0 5.520425,-2.307044 2.101058,-2.307043 2.101058,-6.097185 0,-3.83134 -2.101058,-6.0971862 -2.05986,-2.3070432 -5.520425,-2.3070432 -3.501762,0 -5.602819,2.265846 -2.05986,2.2658464 -2.05986,6.1383834 0,3.831339 2.05986,6.138382 2.101057,2.265847 5.602819,2.265847 z M 73.784127,10.747362 Q 73.001381,9.30546 71.518281,8.5639104 70.076379,7.7811636 68.098914,7.7811636 q -3.419368,0 -5.479228,2.2658464 -2.05986,2.224648 -2.05986,5.973594 0,3.996128 2.142254,6.261974 2.183452,2.224649 5.973594,2.224649 2.595424,0 4.366904,-1.31831 1.812677,-1.318311 2.636621,-3.790143 h -8.939793 v -5.190847 h 15.325359 v 6.550355 q -0.782747,2.636621 -2.677818,4.902467 -1.853874,2.265846 -4.737678,3.666551 -2.883805,1.400704 -6.509158,1.400704 -4.284509,0 -7.66268,-1.853874 -3.336973,-1.895071 -5.232044,-5.232044 -1.853874,-3.336973 -1.853874,-7.621482 0,-4.284509 1.853874,-7.6214824 1.895071,-3.3781704 5.232044,-5.2320445 3.336974,-1.8950712 7.621483,-1.8950712 5.190847,0 8.733806,2.5130292 3.584157,2.5130293 4.737678,6.9623269 z m 25.87181,20.063037 q -4.078523,0 -7.49789,-1.895071 -3.378171,-1.895072 -5.396834,-5.273242 -1.977465,-3.419368 -1.977465,-7.662679 0,-4.243312 1.977465,-7.6214826 2.018663,-3.3781704 5.396834,-5.2732417 3.419367,-1.8950712 7.49789,-1.8950712 4.078523,0 7.456693,1.8950712 3.41937,1.8950713 5.35564,5.2732417 1.97746,3.3781706 1.97746,7.6214826 0,4.243311 -1.97746,7.662679 -1.97747,3.37817 -5.35564,5.273242 -3.37817,1.895071 -7.456693,1.895071 z m 0,-6.426763 q 3.460563,0 5.520423,-2.307044 2.10106,-2.307043 2.10106,-6.097185 0,-3.83134 -2.10106,-6.0971862 -2.05986,-2.3070432 -5.520423,-2.3070432 -3.501762,0 -5.602819,2.265846 -2.05986,2.2658464 -2.05986,6.1383834 0,3.831339 2.05986,6.138382 2.101057,2.265847 5.602819,2.265847 z"
     id="text1"
     aria-label="LOGO" /></svg>
